<?xml version="1.0" encoding="utf-8"?>
<!DOCTYPE svg PUBLIC "-//W3C//DTD SVG 1.1//EN" "http://www.w3.org/Graphics/SVG/1.1/DTD/svg11.dtd">
<svg version="1.1" xmlns="http://www.w3.org/2000/svg" xmlns:xlink="http://www.w3.org/1999/xlink" xmlns:xml="http://www.w3.org/XML/1998/namespace" width="1122px" height="584px" viewBox="0, 0, 1122, 584" preserveAspectRatio="none" contentStyleType="text/css" zoomAndPan="magnify" style="background:#FFF;">
  <defs />
  <g>
    <line x1="42" y1="37.6094" x2="42" y2="547.9375" stroke-width="0.5" stroke-dasharray="5 5" style="stroke:#181818;" />
    <line x1="469" y1="37.6094" x2="469" y2="547.9375" stroke-width="0.5" stroke-dasharray="5 5" style="stroke:#181818;" />
    <line x1="529" y1="37.6094" x2="529" y2="547.9375" stroke-width="0.5" stroke-dasharray="5 5" style="stroke:#181818;" />
    <line x1="945" y1="37.6094" x2="945" y2="547.9375" stroke-width="0.5" stroke-dasharray="5 5" style="stroke:#181818;" />
    <line x1="1058" y1="37.6094" x2="1058" y2="547.9375" stroke-width="0.5" stroke-dasharray="5 5" style="stroke:#181818;" />
    <rect x="5" y="5" width="74" height="31.6094" rx="2.5" ry="2.5" stroke-width="0.5" style="fill:#E2E2F0;stroke:#181818;" />
    <text x="12" y="26.5332" textLength="60" lengthAdjust="spacing" font-family="sans-serif" font-size="14" style="fill:black;">Physician</text>
    <rect x="5" y="546.9375" width="74" height="31.6094" rx="2.5" ry="2.5" stroke-width="0.5" style="fill:#E2E2F0;stroke:#181818;" />
    <text x="12" y="568.4707" textLength="60" lengthAdjust="spacing" font-family="sans-serif" font-size="14" style="fill:black;">Physician</text>
    <rect x="440" y="5" width="58" height="31.6094" rx="2.5" ry="2.5" stroke-width="0.5" style="fill:#E2E2F0;stroke:#181818;" />
    <text x="447" y="26.5332" textLength="44" lengthAdjust="spacing" font-family="sans-serif" font-size="14" style="fill:black;">Patient</text>
    <rect x="440" y="546.9375" width="58" height="31.6094" rx="2.5" ry="2.5" stroke-width="0.5" style="fill:#E2E2F0;stroke:#181818;" />
    <text x="447" y="568.4707" textLength="44" lengthAdjust="spacing" font-family="sans-serif" font-size="14" style="fill:black;">Patient</text>
    <rect x="508" y="5" width="42" height="31.6094" rx="2.5" ry="2.5" stroke-width="0.5" style="fill:#E2E2F0;stroke:#181818;" />
    <text x="515" y="26.5332" textLength="28" lengthAdjust="spacing" font-family="sans-serif" font-size="14" style="fill:black;">EHR</text>
    <rect x="508" y="546.9375" width="42" height="31.6094" rx="2.5" ry="2.5" stroke-width="0.5" style="fill:#E2E2F0;stroke:#181818;" />
    <text x="515" y="568.4707" textLength="28" lengthAdjust="spacing" font-family="sans-serif" font-size="14" style="fill:black;">EHR</text>
    <rect x="899" y="5" width="92" height="31.6094" rx="2.5" ry="2.5" stroke-width="0.5" style="fill:#E2E2F0;stroke:#181818;" />
    <text x="906" y="26.5332" textLength="78" lengthAdjust="spacing" font-family="sans-serif" font-size="14" style="fill:black;">Lab_System</text>
    <rect x="899" y="546.9375" width="92" height="31.6094" rx="2.5" ry="2.5" stroke-width="0.5" style="fill:#E2E2F0;stroke:#181818;" />
    <text x="906" y="568.4707" textLength="78" lengthAdjust="spacing" font-family="sans-serif" font-size="14" style="fill:black;">Lab_System</text>
    <rect x="1001" y="5" width="115" height="31.6094" rx="2.5" ry="2.5" stroke-width="0.5" style="fill:#E2E2F0;stroke:#181818;" />
    <text x="1008" y="26.5332" textLength="101" lengthAdjust="spacing" font-family="sans-serif" font-size="14" style="fill:black;">Lab_Technician</text>
    <rect x="1001" y="546.9375" width="115" height="31.6094" rx="2.5" ry="2.5" stroke-width="0.5" style="fill:#E2E2F0;stroke:#181818;" />
    <text x="1008" y="568.4707" textLength="101" lengthAdjust="spacing" font-family="sans-serif" font-size="14" style="fill:black;">Lab_Technician</text>
    <polygon points="457,65.9609 467,69.9609 457,73.9609 461,69.9609" stroke-width="1" style="fill:#181818;stroke:#181818;" />
    <line x1="42" y1="69.9609" x2="463" y2="69.9609" stroke-width="1" style="stroke:#181818;" />
    <text x="49" y="65.1045" textLength="350" lengthAdjust="spacing" font-family="sans-serif" font-size="13" style="fill:black;">Reviews anatomic inventory and notes patient has a prostate</text>
    <polygon points="53,129.0156 43,133.0156 53,137.0156 49,133.0156" stroke-width="1" style="fill:#181818;stroke:#181818;" />
    <line x1="47" y1="133.0156" x2="528" y2="133.0156" stroke-width="1" style="stroke:#181818;" />
    <text x="59" y="95.4561" textLength="408" lengthAdjust="spacing" font-family="sans-serif" font-size="13" style="fill:black;">Julie’s age is over 50, has an anatomic inventory with prostate present,</text>
    <text x="59" y="111.8076" textLength="425" lengthAdjust="spacing" font-family="sans-serif" font-size="13" style="fill:black;">and no prostate exam or PSA value in the past 10 years. Alerts physician</text>
    <text x="59" y="128.1592" textLength="412" lengthAdjust="spacing" font-family="sans-serif" font-size="13" style="fill:black;">that a prostate exam and/or a PSA should be considered for the patient</text>
    <polygon points="457,159.3672 467,163.3672 457,167.3672 461,163.3672" stroke-width="1" style="fill:#181818;stroke:#181818;" />
    <line x1="42" y1="163.3672" x2="463" y2="163.3672" stroke-width="1" style="stroke:#181818;" />
    <text x="49" y="158.5107" textLength="217" lengthAdjust="spacing" font-family="sans-serif" font-size="13" style="fill:black;">Reviews recommendation with patient</text>
    <polygon points="53,189.7188 43,193.7188 53,197.7188 49,193.7188" stroke-width="1" style="fill:#181818;stroke:#181818;" />
    <line x1="47" y1="193.7188" x2="468" y2="193.7188" stroke-width="1" style="stroke:#181818;" />
    <text x="59" y="188.8623" textLength="84" lengthAdjust="spacing" font-family="sans-serif" font-size="13" style="fill:black;">Patient agrees</text>
    <polygon points="457,220.0703 467,224.0703 457,228.0703 461,224.0703" stroke-width="1" style="fill:#181818;stroke:#181818;" />
    <line x1="42" y1="224.0703" x2="463" y2="224.0703" stroke-width="1" style="stroke:#181818;" />
    <text x="49" y="219.2139" textLength="251" lengthAdjust="spacing" font-family="sans-serif" font-size="13" style="fill:black;">Collects current medication list from patient</text>
    <polygon points="53,250.4219 43,254.4219 53,258.4219 49,254.4219" stroke-width="1" style="fill:#181818;stroke:#181818;" />
    <line x1="47" y1="254.4219" x2="468" y2="254.4219" stroke-width="1" style="stroke:#181818;" />
    <text x="59" y="249.5654" textLength="403" lengthAdjust="spacing" font-family="sans-serif" font-size="13" style="fill:black;">Informs Dr. Jones that she is receiving an estrogenic therapy regimen.</text>
    <polygon points="517,280.7734 527,284.7734 517,288.7734 521,284.7734" stroke-width="1" style="fill:#181818;stroke:#181818;" />
    <line x1="42" y1="284.7734" x2="523" y2="284.7734" stroke-width="1" style="stroke:#181818;" />
    <text x="49" y="279.917" textLength="383" lengthAdjust="spacing" font-family="sans-serif" font-size="13" style="fill:black;">Creates entry that patient is taking an estrogenic therapy regimen.</text>
    <polygon points="457,311.125 467,315.125 457,319.125 461,315.125" stroke-width="1" style="fill:#181818;stroke:#181818;" />
    <line x1="42" y1="315.125" x2="463" y2="315.125" stroke-width="1" style="stroke:#181818;" />
    <text x="49" y="310.2686" textLength="357" lengthAdjust="spacing" font-family="sans-serif" font-size="13" style="fill:black;">Examines patient prostate and notes a nodule on the prostate</text>
    <polygon points="457,341.4766 467,345.4766 457,349.4766 461,345.4766" stroke-width="1" style="fill:#181818;stroke:#181818;" />
    <line x1="42" y1="345.4766" x2="463" y2="345.4766" stroke-width="1" style="stroke:#181818;" />
    <text x="49" y="340.6201" textLength="356" lengthAdjust="spacing" font-family="sans-serif" font-size="13" style="fill:black;">Discusses finding with patient. Recommends ordering a PSA.</text>
    <polygon points="53,371.8281 43,375.8281 53,379.8281 49,375.8281" stroke-width="1" style="fill:#181818;stroke:#181818;" />
    <line x1="47" y1="375.8281" x2="468" y2="375.8281" stroke-width="1" style="stroke:#181818;" />
    <text x="59" y="370.9717" textLength="88" lengthAdjust="spacing" font-family="sans-serif" font-size="13" style="fill:black;">Patient agrees.</text>
    <polygon points="517,418.5313 527,422.5313 517,426.5313 521,422.5313" stroke-width="1" style="fill:#181818;stroke:#181818;" />
    <line x1="42" y1="422.5313" x2="523" y2="422.5313" stroke-width="1" style="stroke:#181818;" />
    <text x="49" y="401.3232" textLength="242" lengthAdjust="spacing" font-family="sans-serif" font-size="13" style="fill:black;">Places lab order for PSA quantitative test.</text>
    <text x="49" y="417.6748" textLength="445" lengthAdjust="spacing" font-family="sans-serif" font-size="13" style="fill:black;">Enters SPCU value as ‘Male’ with a comment that the patient has a prostate.</text>
    <polygon points="933,465.2344 943,469.2344 933,473.2344 937,469.2344" stroke-width="1" style="fill:#181818;stroke:#181818;" />
    <line x1="529" y1="469.2344" x2="939" y2="469.2344" stroke-width="1" style="stroke:#181818;" />
    <text x="536" y="448.0264" textLength="392" lengthAdjust="spacing" font-family="sans-serif" font-size="13" style="fill:black;">Transmits lab order for PSA quantitative test, SPCU value as ‘Male,’</text>
    <text x="540" y="464.3779" textLength="261" lengthAdjust="spacing" font-family="sans-serif" font-size="13" style="fill:black;">and comment that the patient has a prostate.</text>
    <polygon points="1046.5,495.5859 1056.5,499.5859 1046.5,503.5859 1050.5,499.5859" stroke-width="1" style="fill:#181818;stroke:#181818;" />
    <line x1="469" y1="499.5859" x2="1052.5" y2="499.5859" stroke-width="1" style="stroke:#181818;" />
    <text x="476" y="494.7295" textLength="271" lengthAdjust="spacing" font-family="sans-serif" font-size="13" style="fill:black;">Checks in with Lab department as ‘Julie Smith’</text>
    <polygon points="480,525.9375 470,529.9375 480,533.9375 476,529.9375" stroke-width="1" style="fill:#181818;stroke:#181818;" />
    <line x1="474" y1="529.9375" x2="1057.5" y2="529.9375" stroke-width="1" style="stroke:#181818;" />
    <text x="486" y="525.0811" textLength="218" lengthAdjust="spacing" font-family="sans-serif" font-size="13" style="fill:black;">Collects blood specimen from patient.</text>
  </g>
</svg>